<svg xmlns="http://www.w3.org/2000/svg" width="481.29642" height="478.51755" viewBox="0 0 481.29642 478.51755" role="img" aria-label="Don Jose's restaurant icon">
  <title>Don Jose's Icon</title>

  <g transform="translate(481.29642 0) scale(-1 1)">
    <g transform="translate(-134.35179,-293.10341)">
      <g transform="translate(177.59544,329.44052)">
        <path fill="#000" d="m 193.44874,118.93724 c 10.84277,10.84278 12.57236,32.32893 -0.23618,45.13746 l 183.02257,183.02257 c 25.9791,25.9791 -9.43351,61.39171 -35.41262,35.41261 L 157.79995,199.48731 c -12.47337,12.47337 -32.93421,13.72494 -47.32666,-0.66751 L 9.754424,98.100928 C 0.98701397,89.333514 13.319664,76.323461 22.764484,85.768284 L 97.221404,160.22521 107.828,149.61861 32.693664,74.484262 c -8.05818,-8.058182 3.62181,-20.773376 12.53631,-11.858881 L 120.0256,137.42101 130.98575,126.46086 55.939804,51.414903 c -8.41385,-8.413849 3.09148,-20.596599 12.18275,-11.505327 L 142.82979,114.61682 153.61317,103.83344 78.567224,28.787486 c -8.32546,-8.325462 3.70807,-21.0364186 12.71096,-12.033537 L 193.44874,118.93724 z"/>
        <path fill="#000" d="M 319.72202,63.861656 35.481359,348.10232 c -25.408468,25.40847 10.44821,60.51279 35.480497,35.4805 l 112.779994,-112.78 18.89319,18.89319 171.46067,-171.46067 C 414.00835,78.322697 359.63466,23.949014 319.72202,63.861656 z"/>
      </g>
    </g>
  </g>

  <g fill="#fff" stroke="#000" stroke-width="9" stroke-linecap="round" stroke-linejoin="round">
    <path d="M146 146c0-32 26-58 58-58 12 0 23 4 33 10 7-16 23-27 42-27 22 0 40 13 46 33 5-2 10-3 15-3 29 0 52 23 52 52 0 29-23 52-52 52H194c-27 0-48-21-48-48z"/>
    <path fill="none" d="M203 178c29-10 70-10 99 0"/>
  </g>

  <rect x="104" y="206" width="274" height="60" fill="#fff"/>

  <g stroke="#000" stroke-width="8" stroke-linejoin="round" stroke-linecap="round">
    <path fill="#fff" d="M96 218h288l-22 44H118z"/>
    <path fill="#fff" d="M96 218l-52 34 66 4 24-16z"/>
    <path fill="#fff" d="M384 218l52 34-66 4-24-16z"/>
  </g>

  <text x="240.648" y="250" text-anchor="middle" fill="#000" font-size="42" font-weight="700" font-family="Georgia, 'Times New Roman', serif">Don Jose&apos;s</text>
</svg>
