<svg xmlns="http://www.w3.org/2000/svg" viewBox="0 0 512 512" role="img" aria-labelledby="title desc">
  <title id="title">Restaurant plate icon</title>
  <desc id="desc">Plato con cuchillo y tenedor para Don Jose's.</desc>
  <defs>
    <linearGradient id="bg" x1="0" y1="0" x2="1" y2="1">
      <stop offset="0%" stop-color="#f7f2e7"/>
      <stop offset="100%" stop-color="#e9ddc8"/>
    </linearGradient>
  </defs>

  <rect width="512" height="512" rx="112" fill="url(#bg)"/>

  <circle cx="256" cy="256" r="132" fill="none" stroke="#7f6553" stroke-width="28"/>
  <circle cx="256" cy="256" r="76" fill="none" stroke="#7f6553" stroke-width="16" opacity="0.9"/>

  <rect x="110" y="126" width="16" height="260" rx="8" fill="#7f6553"/>
  <rect x="94" y="118" width="10" height="88" rx="5" fill="#7f6553"/>
  <rect x="108" y="118" width="10" height="88" rx="5" fill="#7f6553"/>
  <rect x="122" y="118" width="10" height="88" rx="5" fill="#7f6553"/>

  <rect x="386" y="126" width="16" height="260" rx="8" fill="#7f6553"/>
  <path d="M378 118h32c0 24-4 45-16 63-12-18-16-39-16-63z" fill="#7f6553"/>

  <path d="M173 378c26 18 55 28 83 28s57-10 83-28" fill="none" stroke="#7f6553" stroke-width="12" stroke-linecap="round" opacity="0.75"/>
</svg>
